# AST/ASF file generated using VICON BodyLanguage
# -----------------------------------------------
:version 1.10
:name VICON
:units
  mass 1.0
  length 0.45
  angle deg
:documentation
   .ast/.asf automatically generated from VICON data using
   VICON BodyBuilder and BodyLanguage model FoxedUp or BRILLIANT.MOD
:root
   order TX TY TZ RX RY RZ
   axis XYZ
   position 0 0 0  
   orientation 0 0 0 
:bonedata
  begin
     id 1 
     name lhipjoint
     direction 0.535335 -0.74333 0.401095 
     length 2.04549 
     axis 0 0 0  XYZ
  end
  begin
     id 2 
     name lfemur
     direction 0.34202 -0.939693 0  
     length 6.95643  
     axis 0 0 20  XYZ
    dof rx ry rz
    limits (-160.0 20.0)
           (-70.0 70.0)
           (-60.0 70.0)
  end
  begin
     id 3 
     name ltibia
     direction 0.34192 -0.939729 0   
     length 5.55969   
     axis 0 0 20   XYZ
    dof rx
    limits (-10.0 170.0)
  end
  begin
     id 4 
     name lfoot
     direction 0.216943 -0.596046 0.773088   
     length 2.27918   
     axis -90 7.62852e-016 20   XYZ
    dof rx rz
    limits (-45.0 90.0)
           (-70.0 20.0)
  end
  begin
     id 5 
     name ltoes
     direction 1.53519e-011 -4.21748e-011 1   
     length 1.05562   
     axis -90 7.62852e-016 20   XYZ
    dof rx
    limits (-90.0 20.0)
  end
  begin
     id 6 
     name rhipjoint
     direction -0.576368 -0.719173 0.38806   
     length 2.1142  
     axis 0 0 0  XYZ 
  end
  begin
     id 7 
     name rfemur
     direction -0.34202 -0.939693 0   
     length 7.07928   
     axis 0 0 -20   XYZ
    dof rx ry rz
    limits (-160.0 20.0)
           (-70.0 70.0)
           (-70.0 60.0)
  end
  begin
     id 8 
     name rtibia
     direction -0.34202 -0.939693 0   
     length 5.79974   
     axis 0 0 -20   XYZ
    dof rx
    limits (-10.0 170.0)
 end
 begin
     id 9 
     name rfoot
     direction -0.189288 -0.520065 0.832888   
     length 2.42173  
     axis -90 -7.62852e-016 -20   XYZ
    dof rx rz
    limits (-45.0 90.0)
           (-20.0 70.0)
  end
  begin
     id 10 
     name rtoes
     direction -1.53574e-011 -4.21658e-011 1   
     length 1.14469   
     axis -90 -7.62852e-016 -20   XYZ
    dof rx
    limits (-90.0 20.0)
  end
  begin
     id 11 
     name lowerback
     direction -0.00135702 0.993803 0.111144   
     length 1.91308   
     axis 0 0 0   XYZ
    dof rx ry rz
    limits (-20.0 45.0)
           (-30.0 30.0)
           (-30.0 30.0)
  end
  begin
     id 12 
     name upperback
     direction -0.0056745 0.999813 0.0184631   
     length 1.9212   
     axis 0 0 0   XYZ
    dof rx ry rz
    limits (-20.0 45.0)
           (-30.0 30.0)
           (-30.0 30.0)
  end
  begin
     id 13 
     name thorax
     direction -0.00733434 0.999426 -0.0330788   
     length 1.94196   
     axis 0 0 0   XYZ
    dof rx ry rz
    limits (-20.0 45.0)
           (-30.0 30.0)
           (-30.0 30.0)
  end
  begin
     id 14 
     name lowerneck
     direction 0.0563074 0.996944 -0.0541571   
     length 2.34257   
     axis 0 0 0   XYZ
    dof rx ry rz
    limits (-20.0 45.0)
           (-30.0 30.0)
           (-30.0 30.0)
  end
  begin
     id 15 
     name upperneck
     direction -0.0544519 0.976166 -0.210085   
     length 2.32506   
     axis 0 0 0   XYZ
    dof rx ry rz
    limits (-20.0 45.0)
           (-30.0 30.0)
           (-30.0 30.0)
  end
  begin
     id 16
     name head
     direction -0.0226035 0.997615 -0.0652205  
     length 2.3648  
     axis 0 0 0   XYZ
    dof rx ry rz
    limits (-20.0 45.0)
           (-30.0 30.0)
           (-30.0 30.0)
  end
  begin
     id 17 
     name lclavicle
     direction 0.92109 0.381297 -0.0787716  
     length 4.0487  
     axis 0 0 0   XYZ
    dof ry rz
    limits (-20.0 10.0)
           (0.0 20.0)
  end
  begin
     id 18 
     name lhumerus
     direction 1 -4.48986e-011 3.56724e-027   
     length 4.94991   
     axis 180 -30 -90   XYZ
    dof rx ry rz
    limits (-60.0 90.0)
           (-90.0 90.0)
           (-90.0 90.0)
  end
  begin
     id 19
     name lradius
     direction 1 -4.48981e-011 8.62147e-027   
     length 2.7606   
     axis 180 -30 -90   XYZ
    dof rx
    limits (-10.0 170.0)
  end
  begin
     id 20
     name lwrist
     direction 1 -4.48989e-011 1.59799e-026   
     length 1.3803   
     axis -1.17785e-014 90 90   XYZ
    dof ry
    limits (-180.0 0.0)
 end
  begin
     id 21 
     name lhand
     direction 1 -4.48896e-011 3.19599e-026   
     length 0.843936   
     axis -2.03931e-014 90 90   XYZ
    dof rx rz
    limits (-90.0 90.0)
           (-45.0 45.0)
  end
  begin
     id 22 
     name lfingers
     direction 1 -4.48887e-011 6.39197e-026   
     length 0.680403   
     axis -4.07862e-014 90 90   XYZ
    dof rx
    limits (0.0 90.0)
  end
  begin
     id 23
     name lthumb
     direction 0.707107 -6.348e-011 0.707107   
     length 0.976926   
     axis -90 45 2.85299e-015   XYZ
    dof rx rz
    limits (-45.0 45.0)
           (-45.0 45.0)
  end
  begin
     id 24 
     name rclavicle
     direction -0.951104 0.307692 -0.026953   
     length 4.21801  
     axis 0 0 0   XYZ 
    dof ry rz
    limits (-10.0 20.0)
           (-20.0 0.0)
  end
  begin
     id 25 
     name rhumerus
     direction -1 -4.4896e-011 -1.8171e-018  
     length 4.32982   
     axis 180 30 90   XYZ
    dof rx ry rz
    limits (-90.0 60.0)
           (-90.0 90.0)
           (-90.0 90.0)
  end
  begin
     id 26 
     name rradius
     direction -1 -4.48959e-011 8.25165e-027   
     length 3.20057   
     axis 180 30 90   XYZ
    dof rx
    limits (-10.0 170.0)
  end
  begin
     id 27 
     name rwrist
     direction -1 -4.48997e-011 1.59799e-026   
     length 1.60029   
     axis -1.17785e-014 -90 -90   XYZ
    dof ry
    limits (-180.0 0.0)
  end
  begin
     id 28
     name rhand
     direction -1 -4.49023e-011 3.19599e-026   
     length 0.960433   
     axis -2.03931e-014 -90 -90   XYZ
    dof rx rz
    limits (-90.0 90.0)
           (-45.0 45.0)
  end
  begin
     id 29
     name rfingers
     direction -1 -4.48802e-011 6.39197e-026   
     length 0.774326   
     axis -4.07862e-014 -90 -90   XYZ
    dof rx
    limits (0.0 90.0)
  end
  begin
     id 30
     name rthumb
     direction -0.707107 -6.34876e-011 0.707107   
     length 1.11178   
     axis -90 -45 -2.85299e-015   XYZ
    dof rx rz
    limits (-45.0 45.0)
           (-45.0 45.0)
  end
:hierarchy
  begin
    root lhipjoint rhipjoint lowerback
    lhipjoint lfemur
    lfemur ltibia
    ltibia lfoot
    lfoot ltoes
    rhipjoint rfemur
    rfemur rtibia
    rtibia rfoot
    rfoot rtoes
    lowerback upperback
    upperback thorax
    thorax lowerneck lclavicle rclavicle
    lowerneck upperneck
    upperneck head
    lclavicle lhumerus
    lhumerus lradius
    lradius lwrist
    lwrist lhand lthumb
    lhand lfingers
    rclavicle rhumerus
    rhumerus rradius
    rradius rwrist
    rwrist rhand rthumb
    rhand rfingers
end

#!OML:ASF C:\KaitlinTest1\Natural Motions\Nikki\Session 2\Nikki.ASF
:FULLY-SPECIFIED
:DEGREES
611
root -18.8599 16.6305 5.05334 -153.809 85.7687 -163.823
lowerback -13.4935 -1.62451 -0.119895
upperback -3.94277 -1.92799 -0.585351
thorax 3.39471 -0.880066 -0.849405
lowerneck -1.91862 1.6358 8.52051
upperneck 27.3252 3.92717 -5.6933
head 9.11166 2.57258 -3.04419
rclavicle -1.33683e-014 5.96354e-015
rhumerus -42.5164 -22.127 -79.4145
rradius 18.383
rwrist 29.0702
rhand -35.9491 3.24898
rfingers 7.12502
rthumb -9.06072 -26.5364
lclavicle -1.33683e-014 5.96354e-015
lhumerus -42.2811 16.3329 80.3319
lradius 23.9755
lwrist -40.0315
lhand -32.8216 3.85423
lfingers 7.12502
lthumb -6.04201 33.7481
rfemur -7.68045 -16.8399 21.0807
rtibia 11.0388
rfoot -10.727 12.0311
rtoes -6.36111e-015
lfemur -9.99801 12.0141 -17.8533
ltibia 9.84282
lfoot -2.22135 -16.7276
ltoes -3.18055e-015
612
root -18.8598 16.6299 5.05317 -153.73 85.7744 -163.753
lowerback -13.4912 -1.61749 -0.106608
upperback -3.95364 -1.91969 -0.592428
thorax 3.38147 -0.875787 -0.862663
lowerneck -1.91225 1.62411 8.54004
upperneck 27.3288 3.91324 -5.70747
head 9.11121 2.56706 -3.05384
rclavicle 1.52567e-014 1.03368e-014
rhumerus -42.556 -22.0891 -79.444
rradius 18.4299
rwrist 29.0075
rhand -35.931 3.21643
rfingers 7.12502
rthumb -9.04321 -26.5697
lclavicle 1.52567e-014 1.03368e-014
lhumerus -42.2734 16.3125 80.3183
lradius 23.9575
lwrist -40.0316
lhand -32.754 3.84208
lfingers 7.12502
lthumb -5.97672 33.7378
rfemur -7.69256 -16.8073 21.0843
rtibia 11.0319
rfoot -10.7334 12.011
rtoes 3.33958e-014
lfemur -9.99942 12.0215 -17.8548
ltibia 9.8458
lfoot -2.25163 -16.7134
ltoes -7.95139e-015
613
root -18.8599 16.6297 5.05308 -153.991 85.768 -164.004
lowerback -13.4683 -1.6257 -0.124855
upperback -3.95087 -1.92853 -0.594302
thorax 3.37241 -0.880395 -0.855151
lowerneck -1.87215 1.62985 8.52866
upperneck 27.2685 3.91377 -5.68147
head 9.0819 2.56749 -3.0425
rclavicle -5.07149e-014 -2.3059e-014
rhumerus -42.5493 -22.0672 -79.4659
rradius 18.4396
rwrist 28.9633
rhand -35.9437 3.23153
rfingers 7.12502
rthumb -9.05549 -26.5541
lclavicle -5.07149e-014 -2.3059e-014
lhumerus -42.3175 16.554 80.1294
lradius 23.9448
lwrist -40.5732
lhand -32.6673 3.74385
lfingers 7.12502
lthumb -5.89301 33.6419
rfemur -7.67738 -16.8292 21.0645
rtibia 11.0328
rfoot -10.7246 12.0179
rtoes 7.95139e-016
lfemur -9.9836 12.0069 -17.868
ltibia 9.84184
lfoot -2.26621 -16.7023
ltoes 1.11319e-014
614
root -18.8587 16.6304 5.05287 -153.936 85.768 -163.954
lowerback -13.4832 -1.6325 -0.128893
upperback -3.95884 -1.93738 -0.573012
thorax 3.37292 -0.884552 -0.832367
lowerneck -1.88042 1.63191 8.51566
upperneck 27.2955 3.93011 -5.7192
head 9.09436 2.57125 -3.05223
rclavicle 1.67476e-014 7.15625e-015
rhumerus -42.5351 -21.9324 -79.5291
rradius 18.5046
rwrist 28.8519
rhand -35.8255 2.96691
rfingers 7.12502
rthumb -8.94138 -26.8236
lclavicle 1.67476e-014 7.15625e-015
lhumerus -42.3495 16.6072 80.1256
lradius 23.932
lwrist -40.6294
lhand -32.6232 3.7603
lfingers 7.12502
lthumb -5.85045 33.6595
rfemur -7.67543 -16.8364 21.0678
rtibia 11.0219
rfoot -10.7021 12.024
rtoes 2.70347e-014
lfemur -10.0005 12.0085 -17.8668
ltibia 9.85401
lfoot -2.27705 -16.699
ltoes 4.13472e-014
615
root -18.8591 16.63 5.05329 -153.958 85.7575 -163.964
lowerback -13.471 -1.6286 -0.127453
upperback -3.94235 -1.93278 -0.585173
thorax 3.38313 -0.882619 -0.845087
lowerneck -1.88296 1.6282 8.53917
upperneck 27.2519 3.91561 -5.71624
head 9.07876 2.56514 -3.0561
rclavicle -2.34814e-014 3.57812e-015
rhumerus -42.5201 -22.0409 -79.4894
rradius 18.4406
rwrist 28.9746
rhand -35.9093 3.11296
rfingers 7.12502
rthumb -9.02225 -26.6741
lclavicle -2.34814e-014 3.57812e-015
lhumerus -42.3014 16.5051 80.1905
lradius 23.9325
lwrist -40.4778
lhand -32.7307 3.76451
lfingers 7.12502
lthumb -5.95421 33.6608
rfemur -7.65612 -16.8241 21.0705
rtibia 11.0217
rfoot -10.7098 12.0036
rtoes 7.95139e-016
lfemur -9.99292 11.9998 -17.8525
ltibia 9.8578
lfoot -2.25355 -16.7157
ltoes 2.8625e-014
616
root -18.8585 16.6303 5.05284 -153.657 85.7611 -163.694
lowerback -13.5095 -1.621 -0.108187
upperback -3.94895 -1.92457 -0.580603
thorax 3.39671 -0.878133 -0.850839
lowerneck -1.88346 1.62552 8.55658
upperneck 27.2355 3.91134 -5.73044
head 9.07322 2.56289 -3.0643
rclavicle -8.87077e-015 -3.97569e-016
rhumerus -42.504 -21.9983 -79.5401
rradius 18.467
rwrist 28.8594
rhand -35.854 3.02275
rfingers 7.12502
rthumb -8.9689 -26.7666
lclavicle -8.87077e-015 -3.97569e-016
lhumerus -42.2593 16.3226 80.3501
lradius 23.9286
lwrist -39.9697
lhand -32.8445 3.75627
lfingers 7.12502
lthumb -6.06411 33.6495
rfemur -7.68621 -16.8447 21.098
rtibia 11.0024
rfoot -10.7143 12.0458
rtoes -1.25632e-013
lfemur -10.0362 12.0124 -17.8458
ltibia 9.88055
lfoot -2.25355 -16.7211
ltoes -4.77083e-014
617
root -18.86 16.6297 5.05322 -154.065 85.7646 -164.087
lowerback -13.4535 -1.62774 -0.137078
upperback -3.95833 -1.92972 -0.589821
thorax 3.35712 -0.880988 -0.843212
lowerneck -1.86682 1.62976 8.57154
upperneck 27.221 3.91987 -5.74468
head 9.06622 2.56706 -3.07113
rclavicle -7.20594e-016 -3.57812e-015
rhumerus -42.5397 -21.9865 -79.5147
rradius 18.4571
rwrist 29.0003
rhand -35.917 3.15852
rfingers 7.12502
rthumb -9.02971 -26.6282
lclavicle -7.20594e-016 -3.57812e-015
lhumerus -42.3044 16.4121 80.2427
lradius 23.9473
lwrist -40.316
lhand -32.7261 3.74628
lfingers 7.12502
lthumb -5.94976 33.6427
rfemur -7.67986 -16.8232 21.0657
rtibia 11.0103
rfoot -10.6866 12.0074
rtoes -7.31528e-014
lfemur -10.0202 12.0018 -17.8725
ltibia 9.87927
lfoot -2.26084 -16.717
ltoes -3.18055e-015
